<svg xmlns="http://www.w3.org/2000/svg" version="1.1" xmlns:xlink="http://www.w3.org/1999/xlink" width="16" height="16"><svg width="16" height="16" viewBox="0 0 16 16" fill="none" xmlns="http://www.w3.org/2000/svg">
<rect width="16" height="16" fill="white"></rect>
<circle cx="8" cy="7" r="4.625" fill="white" stroke="black" stroke-width="0.75"></circle>
<mask id="SvgjsMask1007" fill="white">
<path d="M9.8066 9.15333L13.9842 13.46L13.2665 14.1563L7 7.69627L9.8066 9.15333Z"></path>
</mask>
<path d="M9.8066 9.15333L13.9842 13.46L13.2665 14.1563L7 7.69627L9.8066 9.15333Z" fill="#D9D9D9"></path>
<path d="M9.8066 9.15333L10.5244 8.45705L10.4114 8.34057L10.2674 8.2658L9.8066 9.15333ZM13.9842 13.46L14.6805 14.1778L15.3983 13.4815L14.702 12.7637L13.9842 13.46ZM13.2665 14.1563L12.5487 14.8525L13.245 15.5703L13.9627 14.874L13.2665 14.1563ZM7 7.69627L7.46076 6.80875L6.28222 8.39255L7 7.69627ZM9.8066 9.15333L9.08882 9.8496L13.2665 14.1563L13.9842 13.46L14.702 12.7637L10.5244 8.45705L9.8066 9.15333ZM13.9842 13.46L13.288 12.7422L12.5702 13.4385L13.2665 14.1563L13.9627 14.874L14.6805 14.1778L13.9842 13.46ZM13.2665 14.1563L13.9842 13.46L7.71778 7L7 7.69627L6.28222 8.39255L12.5487 14.8525L13.2665 14.1563ZM7 7.69627L6.53924 8.5838L9.34584 10.0409L9.8066 9.15333L10.2674 8.2658L7.46076 6.80875L7 7.69627Z" fill="black" mask="url(#path-2-inside-1_1_2)"></path>
</svg><style>@media (prefers-color-scheme: light) { :root { filter: none; } }
@media (prefers-color-scheme: dark) { :root { filter: invert(100%); } }
</style></svg>